ffmpeg version git-2020-06-15-9d80f3e Copyright (c) 2000-2020 the FFmpeg developers
  built with gcc 9.3.1 (GCC) 20200523
  configuration: --enable-gpl --enable-version3 --enable-sdl2 --enable-fontconfig --enable-gnutls --enable-iconv --enable-libass --enable-libdav1d --enable-libbluray --enable-libfreetype --enable-libmp3lame --enable-libopencore-amrnb --enable-libopencore-amrwb --enable-libopenjpeg --enable-libopus --enable-libshine --enable-libsnappy --enable-libsoxr --enable-libsrt --enable-libtheora --enable-libtwolame --enable-libvpx --enable-libwavpack --enable-libwebp --enable-libx264 --enable-libx265 --enable-libxml2 --enable-libzimg --enable-lzma --enable-zlib --enable-gmp --enable-libvidstab --enable-libvmaf --enable-libvorbis --enable-libvo-amrwbenc --enable-libmysofa --enable-libspeex --enable-libxvid --enable-libaom --disable-w32threads --enable-libmfx --enable-ffnvcodec --enable-cuda-llvm --enable-cuvid --enable-d3d11va --enable-nvenc --enable-nvdec --enable-dxva2 --enable-avisynth --enable-libopenmpt --enable-amf
  libavutil      56. 55.100 / 56. 55.100
  libavcodec     58. 92.100 / 58. 92.100
  libavformat    58. 46.101 / 58. 46.101
  libavdevice    58. 11.100 / 58. 11.100
  libavfilter     7. 86.100 /  7. 86.100
  libswscale      5.  8.100 /  5.  8.100
  libswresample   3.  8.100 /  3.  8.100
  libpostproc    55.  8.100 / 55.  8.100
[gdigrab @ 000002154db7e1c0] Capturing whole desktop as 1366x768x32 at (0,0)
[gdigrab @ 000002154db7e1c0] Stream #0: not enough frames to estimate rate; consider increasing probesize
Input #0, gdigrab, from 'desktop':
  Duration: N/A, start: 1592230953.752659, bitrate: 1006131 kb/s
    Stream #0:0: Video: bmp, bgra, 1366x768, 1006131 kb/s, 29.97 fps, 1000k tbr, 1000k tbn, 1000k tbc
Stream mapping:
  Stream #0:0 -> #0:0 (bmp (native) -> h264 (libx264))
Press [q] to stop, [?] for help
[libx264 @ 000002154db828c0] using cpu capabilities: MMX2 SSE2Fast SSSE3 SSE4.2 AVX FMA3 BMI2 AVX2
[libx264 @ 000002154db828c0] profile High, level 3.2, 4:2:0, 8-bit
[libx264 @ 000002154db828c0] 264 - core 160 - H.264/MPEG-4 AVC codec - Copyleft 2003-2020 - http://www.videolan.org/x264.html - options: cabac=1 ref=3 deblock=1:0:0 analyse=0x3:0x113 me=hex subme=7 psy=1 psy_rd=1.00:0.00 mixed_ref=1 me_range=16 chroma_me=1 trellis=1 8x8dct=1 cqm=0 deadzone=21,11 fast_pskip=1 chroma_qp_offset=-2 threads=6 lookahead_threads=1 sliced_threads=0 nr=0 decimate=1 interlaced=0 bluray_compat=0 constrained_intra=0 bframes=3 b_pyramid=2 b_adapt=1 b_bias=0 direct=1 weightb=1 open_gop=0 weightp=2 keyint=250 keyint_min=25 scenecut=40 intra_refresh=0 rc_lookahead=40 rc=crf mbtree=1 crf=23.0 qcomp=0.60 qpmin=0 qpmax=69 qpstep=4 ip_ratio=1.40 aq=1:1.00
Output #0, matroska, to 'videos/User_tries_to_send_an_email_with_empty_inputs.mkv':
  Metadata:
    encoder         : Lavf58.46.101
    Stream #0:0: Video: h264 (libx264) (H264 / 0x34363248), yuv420p, 1366x768, q=-1--1, 29.97 fps, 1k tbn, 29.97 tbc
    Metadata:
      encoder         : Lavc58.92.100 libx264
    Side data:
      cpb: bitrate max/min/avg: 0/0/0 buffer size: 0 vbv_delay: N/A
frame=   17 fps=0.0 q=0.0 size=       1kB time=00:00:00.00 bitrate=N/A speed=   0x    frame=   32 fps= 31 q=0.0 size=       1kB time=00:00:00.00 bitrate=N/A speed=   0x    frame=   47 fps= 30 q=0.0 size=       1kB time=00:00:00.00 bitrate=N/A speed=   0x    frame=   62 fps= 30 q=29.0 size=       1kB time=00:00:00.33 bitrate=  14.4kbits/s speed=0.161x    frame=   69 fps= 22 q=29.0 size=       1kB time=00:00:00.56 bitrate=   8.5kbits/s speed=0.184x    frame=   82 fps= 23 q=29.0 size=       1kB time=00:00:01.00 bitrate=   4.8kbits/s speed=0.277x    frame=   86 fps= 20 q=29.0 size=       1kB time=00:00:01.13 bitrate=   4.2kbits/s speed=0.267x    frame=   98 fps= 21 q=29.0 size=       1kB time=00:00:01.60 bitrate=   3.0kbits/s speed=0.336x    frame=  113 fps= 21 q=27.0 size=       1kB time=00:00:02.10 bitrate=   2.3kbits/s speed=0.397x    frame=  122 fps= 21 q=27.0 size=       1kB time=00:00:03.20 bitrate=   1.5kbits/s speed=0.551x    frame=  131 fps= 21 q=29.0 size=       1kB time=00:00:03.53 bitrate=   1.4kbits/s speed=0.559x    frame=  141 fps= 20 q=28.0 size=       1kB time=00:00:04.43 bitrate=   1.1kbits/s speed=0.644x    frame=  152 fps= 20 q=29.0 size=     144kB time=00:00:04.90 bitrate= 240.9kbits/s speed=0.66x    frame=  164 fps= 21 q=29.0 size=     144kB time=00:00:05.30 bitrate= 222.7kbits/s speed=0.665x    frame=  175 fps= 20 q=28.0 size=     144kB time=00:00:05.94 bitrate= 198.9kbits/s speed=0.695x    frame=  183 fps= 20 q=28.0 size=     144kB time=00:00:06.37 bitrate= 185.4kbits/s speed=0.705x    frame=  193 fps= 20 q=29.0 size=     144kB time=00:00:06.94 bitrate= 170.2kbits/s speed=0.723x    frame=  206 fps= 20 q=27.0 size=     144kB time=00:00:07.60 bitrate= 155.3kbits/s speed=0.753x    frame=  221 fps= 21 q=27.0 size=     144kB time=00:00:08.27 bitrate= 142.8kbits/s speed=0.78x    frame=  234 fps= 21 q=22.0 size=     144kB time=00:00:09.07 bitrate= 130.2kbits/s speed=0.817x    frame=  245 fps= 21 q=29.0 size=     144kB time=00:00:09.64 bitrate= 122.5kbits/s speed=0.828x    frame=  255 fps= 21 q=29.0 size=     256kB time=00:00:10.07 bitrate= 208.1kbits/s speed=0.829x    frame=  267 fps= 21 q=29.0 size=     256kB time=00:00:10.47 bitrate= 200.1kbits/s speed=0.828x    frame=  281 fps= 21 q=29.0 size=     256kB time=00:00:11.01 bitrate= 190.4kbits/s speed=0.835x    frame=  294 fps= 21 q=28.0 size=     256kB time=00:00:11.54 bitrate= 181.6kbits/s speed=0.842x    frame=  302 fps= 21 q=28.0 size=     256kB time=00:00:11.94 bitrate= 175.6kbits/s speed=0.84x    frame=  315 fps= 21 q=27.0 size=     256kB time=00:00:12.54 bitrate= 167.1kbits/s speed=0.849x    frame=  321 fps= 21 q=29.0 size=     256kB time=00:00:12.78 bitrate= 164.1kbits/s speed=0.831x    frame=  331 fps= 21 q=29.0 size=     256kB time=00:00:13.18 bitrate= 159.1kbits/s speed=0.829x    frame=  346 fps= 21 q=29.0 size=     256kB time=00:00:13.78 bitrate= 152.2kbits/s speed=0.84x    frame=  359 fps= 21 q=28.0 size=     256kB time=00:00:14.51 bitrate= 144.5kbits/s speed=0.857x    frame=  373 fps= 21 q=28.0 size=     256kB time=00:00:15.45 bitrate= 135.7kbits/s speed=0.884x    frame=  388 fps= 22 q=29.0 size=     256kB time=00:00:16.15 bitrate= 129.9kbits/s speed=0.898x    frame=  403 fps= 22 q=28.0 size=     256kB time=00:00:16.65 bitrate= 125.9kbits/s speed= 0.9x    frame=  419 fps= 22 q=29.0 size=     256kB time=00:00:17.31 bitrate= 121.1kbits/s speed=0.91x    frame=  434 fps= 22 q=29.0 size=     256kB time=00:00:17.85 bitrate= 117.5kbits/s speed=0.914x    frame=  449 fps= 22 q=29.0 size=     256kB time=00:00:18.35 bitrate= 114.3kbits/s speed=0.915x    frame=  464 fps= 23 q=29.0 size=     256kB time=00:00:18.85 bitrate= 111.2kbits/s speed=0.917x    frame=  478 fps= 23 q=27.0 size=     256kB time=00:00:19.32 bitrate= 108.5kbits/s speed=0.916x    frame=  493 fps= 23 q=29.0 size=     256kB time=00:00:19.85 bitrate= 105.6kbits/s speed=0.919x    frame=  508 fps= 23 q=29.0 size=     256kB time=00:00:20.35 bitrate= 103.0kbits/s speed=0.921x    frame=  522 fps= 23 q=29.0 size=     256kB time=00:00:20.85 bitrate= 100.6kbits/s speed=0.923x    frame=  538 fps= 23 q=29.0 size=     256kB time=00:00:21.42 bitrate=  97.9kbits/s speed=0.926x    frame=  554 fps= 23 q=29.0 size=     256kB time=00:00:21.95 bitrate=  95.5kbits/s speed=0.928x    frame=  568 fps= 23 q=29.0 size=     256kB time=00:00:22.45 bitrate=  93.4kbits/s speed=0.929x    frame=  584 fps= 24 q=29.0 size=     256kB time=00:00:22.99 bitrate=  91.2kbits/s speed=0.931x    frame=  599 fps= 24 q=29.0 size=     256kB time=00:00:23.49 bitrate=  89.3kbits/s speed=0.932x    frame=  614 fps= 24 q=29.0 size=     256kB time=00:00:24.02 bitrate=  87.3kbits/s speed=0.934x    frame=  629 fps= 24 q=29.0 size=     256kB time=00:00:24.52 bitrate=  85.5kbits/s speed=0.935x    frame=  642 fps= 24 q=29.0 size=     256kB time=00:00:24.95 bitrate=  84.0kbits/s speed=0.933x    frame=  657 fps= 24 q=28.0 size=     256kB time=00:00:25.46 bitrate=  82.4kbits/s speed=0.933x    frame=  672 fps= 24 q=29.0 size=     256kB time=00:00:25.99 bitrate=  80.7kbits/s speed=0.936x    frame=  687 fps= 24 q=29.0 size=     256kB time=00:00:26.49 bitrate=  79.2kbits/s speed=0.936x    frame=  702 fps= 24 q=29.0 size=     256kB time=00:00:27.12 bitrate=  77.3kbits/s speed=0.941x    frame=  717 fps= 24 q=29.0 size=     256kB time=00:00:27.62 bitrate=  75.9kbits/s speed=0.942x    frame=  733 fps= 25 q=29.0 size=     256kB time=00:00:28.16 bitrate=  74.5kbits/s speed=0.943x    frame=  749 fps= 25 q=29.0 size=     256kB time=00:00:28.73 bitrate=  73.0kbits/s speed=0.946x    frame=  765 fps= 25 q=29.0 size=     256kB time=00:00:29.26 bitrate=  71.7kbits/s speed=0.946x    frame=  781 fps= 25 q=29.0 size=     256kB time=00:00:29.79 bitrate=  70.4kbits/s speed=0.947x    frame=  797 fps= 25 q=29.0 size=     256kB time=00:00:30.33 bitrate=  69.1kbits/s speed=0.948x    frame=  807 fps= 25 q=29.0 size=     256kB time=00:00:30.66 bitrate=  68.4kbits/s speed=0.943x    frame=  820 fps= 25 q=29.0 size=     256kB time=00:00:31.09 bitrate=  67.4kbits/s speed=0.942x    frame=  835 fps= 25 q=29.0 size=     256kB time=00:00:31.59 bitrate=  66.4kbits/s speed=0.943x    frame=  850 fps= 25 q=29.0 size=     256kB time=00:00:32.10 bitrate=  65.3kbits/s speed=0.944x    frame=  866 fps= 25 q=29.0 size=     256kB time=00:00:32.90 bitrate=  63.7kbits/s speed=0.952x    frame=  881 fps= 25 q=29.0 size=     256kB time=00:00:33.40 bitrate=  62.8kbits/s speed=0.953x    frame=  896 fps= 25 q=29.0 size=     256kB time=00:00:33.90 bitrate=  61.9kbits/s speed=0.954x    frame=  911 fps= 25 q=29.0 size=     256kB time=00:00:34.40 bitrate=  61.0kbits/s speed=0.954x    frame=  927 fps= 25 q=29.0 size=     256kB time=00:00:34.93 bitrate=  60.0kbits/s speed=0.955x    frame=  943 fps= 25 q=29.0 size=     256kB time=00:00:35.47 bitrate=  59.1kbits/s speed=0.956x    frame=  959 fps= 25 q=29.0 size=     256kB time=00:00:36.00 bitrate=  58.2kbits/s speed=0.956x    frame=  972 fps= 25 q=29.0 size=     256kB time=00:00:36.43 bitrate=  57.6kbits/s speed=0.954x    frame=  986 fps= 25 q=29.0 size=     256kB time=00:00:36.90 bitrate=  56.8kbits/s speed=0.954x    frame= 1001 fps= 26 q=29.0 size=     256kB time=00:00:37.40 bitrate=  56.1kbits/s speed=0.954x    frame= 1017 fps= 26 q=27.0 size=     256kB time=00:00:37.93 bitrate=  55.3kbits/s speed=0.955x    frame= 1032 fps= 26 q=27.0 size=     256kB time=00:00:38.54 bitrate=  54.4kbits/s speed=0.958x    frame= 1048 fps= 26 q=29.0 size=     256kB time=00:00:39.10 bitrate=  53.6kbits/s speed=0.959x    frame= 1064 fps= 26 q=29.0 size=     512kB time=00:00:39.64 bitrate= 105.8kbits/s speed=0.96x    frame= 1079 fps= 26 q=29.0 size=     512kB time=00:00:40.14 bitrate= 104.5kbits/s speed=0.96x    frame= 1094 fps= 26 q=29.0 size=     512kB time=00:00:40.64 bitrate= 103.2kbits/s speed=0.961x    frame= 1110 fps= 26 q=29.0 size=     512kB time=00:00:41.17 bitrate= 101.9kbits/s speed=0.961x    frame= 1125 fps= 26 q=29.0 size=     512kB time=00:00:41.67 bitrate= 100.6kbits/s speed=0.962x    frame= 1139 fps= 26 q=29.0 size=     512kB time=00:00:42.14 bitrate=  99.5kbits/s speed=0.96x    frame= 1153 fps= 26 q=29.0 size=     512kB time=00:00:42.61 bitrate=  98.4kbits/s speed=0.959x    frame= 1168 fps= 26 q=29.0 size=     512kB time=00:00:43.11 bitrate=  97.3kbits/s speed=0.959x    frame= 1184 fps= 26 q=28.0 size=     512kB time=00:00:43.64 bitrate=  96.1kbits/s speed=0.96x    frame= 1199 fps= 26 q=29.0 size=     512kB time=00:00:44.27 bitrate=  94.7kbits/s speed=0.963x    frame= 1214 fps= 26 q=29.0 size=     512kB time=00:00:44.81 bitrate=  93.6kbits/s speed=0.964x    frame= 1230 fps= 26 q=29.0 size=     512kB time=00:00:45.34 bitrate=  92.5kbits/s speed=0.965x    frame= 1245 fps= 26 q=29.0 size=     512kB time=00:00:45.84 bitrate=  91.5kbits/s speed=0.965x    frame= 1260 fps= 26 q=29.0 size=     512kB time=00:00:46.34 bitrate=  90.5kbits/s speed=0.965x    frame= 1275 fps= 26 q=29.0 size=     512kB time=00:00:46.84 bitrate=  89.5kbits/s speed=0.965x    frame= 1290 fps= 26 q=29.0 size=     512kB time=00:00:47.34 bitrate=  88.6kbits/s speed=0.965x    frame= 1297 fps= 26 q=29.0 size=     512kB time=00:00:47.58 bitrate=  88.1kbits/s speed=0.96x    frame= 1305 fps= 26 q=29.0 size=     512kB time=00:00:47.84 bitrate=  87.7kbits/s speed=0.955x    frame= 1319 fps= 26 q=29.0 size=     512kB time=00:00:48.34 bitrate=  86.8kbits/s speed=0.955x    frame= 1334 fps= 26 q=29.0 size=     512kB time=00:00:48.88 bitrate=  85.8kbits/s speed=0.956x    frame= 1349 fps= 26 q=29.0 size=     512kB time=00:00:49.65 bitrate=  84.5kbits/s speed=0.962x    frame= 1364 fps= 26 q=29.0 size=     512kB time=00:00:50.38 bitrate=  83.2kbits/s speed=0.966x    frame= 1380 fps= 26 q=29.0 size=     512kB time=00:00:51.01 bitrate=  82.2kbits/s speed=0.969x    frame= 1396 fps= 26 q=29.0 size=     512kB time=00:00:51.55 bitrate=  81.4kbits/s speed=0.969x    frame= 1411 fps= 26 q=29.0 size=     512kB time=00:00:52.05 bitrate=  80.6kbits/s speed=0.969x    frame= 1422 fps= 26 q=-1.0 Lsize=     663kB time=00:00:54.08 bitrate= 100.4kbits/s speed=0.996x    
video:653kB audio:0kB subtitle:0kB other streams:0kB global headers:0kB muxing overhead: 1.459470%
[libx264 @ 000002154db828c0] frame I:6     Avg QP:15.20  size: 56460
[libx264 @ 000002154db828c0] frame P:367   Avg QP:20.59  size:   582
[libx264 @ 000002154db828c0] frame B:1049  Avg QP:29.41  size:   111
[libx264 @ 000002154db828c0] consecutive B-frames:  1.2%  0.8%  1.5% 96.5%
[libx264 @ 000002154db828c0] mb I  I16..4: 47.4% 33.6% 19.1%
[libx264 @ 000002154db828c0] mb P  I16..4:  1.2%  0.5%  0.2%  P16..4:  0.3%  0.0%  0.0%  0.0%  0.0%    skip:97.8%
[libx264 @ 000002154db828c0] mb B  I16..4:  0.7%  0.1%  0.0%  B16..8:  0.6%  0.0%  0.0%  direct: 0.0%  skip:98.6%  L0:39.0% L1:60.2% BI: 0.8%
[libx264 @ 000002154db828c0] 8x8 transform intra:23.3% inter:32.0%
[libx264 @ 000002154db828c0] coded y,uvDC,uvAC intra: 5.8% 7.7% 6.9% inter: 0.0% 0.0% 0.0%
[libx264 @ 000002154db828c0] i16 v,h,dc,p: 17% 83%  0%  0%
[libx264 @ 000002154db828c0] i8 v,h,dc,ddl,ddr,vr,hd,vl,hu: 32% 20% 47%  0%  0%  0%  0%  0%  0%
[libx264 @ 000002154db828c0] i4 v,h,dc,ddl,ddr,vr,hd,vl,hu: 36% 29% 18%  2%  3%  3%  3%  2%  4%
[libx264 @ 000002154db828c0] i8c dc,h,v,p: 86% 10%  3%  0%
[libx264 @ 000002154db828c0] Weighted P-Frames: Y:0.0% UV:0.0%
[libx264 @ 000002154db828c0] ref P L0: 70.8%  7.1% 15.2%  6.9%
[libx264 @ 000002154db828c0] ref B L0: 73.7% 23.4%  3.0%
[libx264 @ 000002154db828c0] ref B L1: 95.2%  4.8%
[libx264 @ 000002154db828c0] kb/s:98.67
